<svg width="43" height="56" viewBox="0 0 43 56" fill="none" xmlns="http://www.w3.org/2000/svg">
<path d="M0 0H29.1071L43 13.5V56H0V0Z" fill="#E20513"/>
<path d="M29 14V0L43 14V28L29 14Z" fill="black" fill-opacity="0.37"/>
<path d="M41 14L29 2V14H41Z" fill="white" fill-opacity="0.59"/>
<path d="M39.6963 35.5547C39.4686 35.6948 38.8183 35.781 38.4064 35.781C37.0624 35.781 35.4149 35.1667 33.0846 34.1752C33.9842 34.1105 34.7971 34.0782 35.5342 34.0782C36.8782 34.0782 37.2684 34.0782 38.5907 34.4123C39.9022 34.7356 39.913 35.4146 39.6963 35.5547V35.5547ZM16.382 35.7594C16.9022 34.8542 17.4333 33.895 17.9753 32.8712C19.2976 30.3816 20.143 28.4202 20.7609 26.8144C22.0073 29.0668 23.5573 30.9744 25.3673 32.5047C25.595 32.6987 25.8334 32.8819 26.0935 33.0759C22.3975 33.8088 19.2001 34.6925 16.382 35.7594V35.7594ZM20.6958 12.1682C21.4329 12.1682 21.8556 14.0068 21.8881 15.7419C21.9206 17.4663 21.5196 18.6733 21.0101 19.5786C20.5874 18.2422 20.3923 16.1515 20.3923 14.7828C20.3923 14.7828 20.3598 12.1682 20.6958 12.1682V12.1682ZM6.23685 45.2757C6.65957 44.1441 8.30706 41.9024 10.7458 39.9086C10.8975 39.7901 11.2769 39.4344 11.6237 39.1111C9.07662 43.1633 7.36409 44.7691 6.23685 45.2757V45.2757ZM40.4008 33.1729C39.6637 32.4508 38.0162 32.0736 35.5233 32.0413C33.8325 32.0198 31.8056 32.1706 29.6595 32.4616C28.7057 31.912 27.7194 31.3192 26.939 30.5972C24.8579 28.6573 23.1237 25.9738 22.0398 23.0208C22.1049 22.7406 22.1699 22.5035 22.2241 22.2557C22.2241 22.2557 23.3947 15.6277 23.0804 13.3861C23.037 13.0735 23.0153 12.9873 22.9286 12.7502L22.8311 12.4808C22.5167 11.7522 21.8881 10.9763 20.9018 11.0183L20.3273 11H20.3165C19.2217 11 18.3221 11.5572 18.0945 12.3838C17.3791 15.0026 18.1162 18.904 19.4494 23.9584L19.1025 24.7883C18.1487 27.0946 16.9564 29.4225 15.9051 31.4701L15.7642 31.7396C14.6586 33.895 13.6506 35.7271 12.7401 37.279L11.7972 37.7748C11.7321 37.8179 10.1171 38.6585 9.73779 38.8848C6.5295 40.7924 4.39642 42.9586 4.04308 44.6829C3.93035 45.2218 4.0149 45.9223 4.5861 46.2564L5.49656 46.709C5.89001 46.903 6.31272 47 6.73544 47C9.02243 47 11.6779 44.1764 15.3306 37.8286C19.5577 36.4599 24.3702 35.3176 28.5865 34.6925C31.7948 36.4923 35.7401 37.7424 38.233 37.7424C38.6774 37.7424 39.0568 37.6993 39.3711 37.6131C39.848 37.4946 40.249 37.2251 40.4983 36.8479C40.9752 36.1259 41.0836 35.1344 40.9427 34.1105C40.9102 33.8088 40.6609 33.4316 40.4008 33.1729Z" fill="white"/>
</svg>
