<svg width="43" height="56" viewBox="0 0 43 56" fill="none" xmlns="http://www.w3.org/2000/svg">
<path d="M0 0H29.1071L43 13.5V56H0V0Z" fill="#CF4424"/>
<path d="M16.8682 32.2271V44H9.9834V10.5859H23.0186C25.5277 10.5859 27.7308 11.0449 29.6279 11.9629C31.5404 12.8809 33.0091 14.189 34.0342 15.8872C35.0592 17.5701 35.5718 19.4902 35.5718 21.6475C35.5718 24.9215 34.4473 27.5072 32.1982 29.4043C29.9645 31.2861 26.8664 32.2271 22.9038 32.2271H16.8682ZM16.8682 26.6504H23.0186C24.8392 26.6504 26.2238 26.222 27.1724 25.3652C28.1362 24.5085 28.6182 23.2845 28.6182 21.6934C28.6182 20.0563 28.1362 18.7329 27.1724 17.7231C26.2085 16.7134 24.8774 16.1932 23.1792 16.1626H16.8682V26.6504Z" fill="white"/>
<path d="M29 14V0L43 14V28L29 14Z" fill="black" fill-opacity="0.37"/>
<path d="M41 14L29 2V14H41Z" fill="white" fill-opacity="0.59"/>
</svg>
